<svg width="1194" height="779" xmlns="http://www.w3.org/2000/svg" xmlns:xlink="http://www.w3.org/1999/xlink" overflow="hidden"><defs><clipPath id="clip0"><rect x="-7" y="-14" width="1194" height="779"/></clipPath><clipPath id="clip1"><rect x="665" y="-13" width="521" height="521"/></clipPath><clipPath id="clip2"><rect x="665" y="-13" width="521" height="521"/></clipPath><clipPath id="clip3"><rect x="665" y="-13" width="521" height="521"/></clipPath><clipPath id="clip4"><rect x="340" y="84" width="521" height="521"/></clipPath><clipPath id="clip5"><rect x="340" y="84" width="521" height="521"/></clipPath><clipPath id="clip6"><rect x="340" y="84" width="521" height="521"/></clipPath><clipPath id="clip7"><rect x="-6" y="243" width="521" height="521"/></clipPath><clipPath id="clip8"><rect x="-6" y="243" width="521" height="521"/></clipPath><clipPath id="clip9"><rect x="-6" y="243" width="521" height="521"/></clipPath><clipPath id="clip10"><path d="M351.761 39.9015 985.491 97.1533 928.239 730.883 294.509 673.631Z" fill-rule="evenodd" clip-rule="evenodd"/></clipPath><clipPath id="clip11"><path d="M351.761 39.9015 985.491 97.1533 928.239 730.883 294.509 673.631Z" fill-rule="evenodd" clip-rule="evenodd"/></clipPath><clipPath id="clip12"><path d="M351.761 39.9015 985.491 97.1533 928.239 730.883 294.509 673.631Z" fill-rule="evenodd" clip-rule="evenodd"/></clipPath></defs><g clip-path="url(#clip0)" transform="translate(7 14)"><g clip-path="url(#clip1)"><g clip-path="url(#clip2)"><g clip-path="url(#clip3)"><path d="M369.042 238.792C369.042 193.832 332.595 157.385 287.635 157.385 242.676 157.385 206.229 193.832 206.229 238.792 206.229 240.821 206.387 242.808 206.533 244.799 209.967 243.068 213.519 241.584 217.165 240.36 217.165 239.817 217.083 239.324 217.083 238.792 217.064 199.827 248.635 168.224 287.6 168.204 326.565 168.185 358.168 199.757 358.188 238.721 358.2 264.163 344.514 287.641 322.369 300.167 323.183 303.931 323.727 307.749 323.997 311.591 351.598 297.825 369.041 269.635 369.042 238.792Z" fill="#BFBFBF" transform="matrix(1 0 0 -1 665 508)"/><path d="M242.873 247.003C203.908 247.003 172.321 278.59 172.321 317.555 172.321 356.52 203.908 388.107 242.873 388.107 281.838 388.107 313.425 356.52 313.425 317.555 313.425 278.59 281.838 247.003 242.873 247.003ZM242.873 377.291C209.903 377.291 183.175 350.563 183.175 317.593 183.175 284.623 209.903 257.895 242.873 257.895 275.843 257.895 302.571 284.623 302.571 317.593 302.529 350.546 275.826 377.249 242.873 377.291Z" fill="#BFBFBF" transform="matrix(1 0 0 -1 665 508)"/><path d="M134.326 160.142C107.35 160.142 85.482 182.01 85.482 208.986 85.482 235.962 107.35 257.83 134.326 257.83 161.302 257.83 183.169 235.962 183.169 208.986 183.169 182.01 161.302 160.142 134.326 160.142ZM134.326 247.003C113.345 247.003 96.3362 229.994 96.3362 209.013 96.3362 188.032 113.345 171.024 134.326 171.024 155.307 171.024 172.315 188.032 172.315 209.013 172.288 229.983 155.295 246.976 134.326 247.003Z" fill="#BFBFBF" transform="matrix(1 0 0 -1 665 508)"/><path d="M400.269 366.431C370.296 366.431 345.998 390.729 345.998 420.702 345.998 450.675 370.296 474.973 400.269 474.973 430.242 474.973 454.54 450.675 454.54 420.702 454.54 390.729 430.242 366.431 400.269 366.431ZM400.269 464.119C376.291 464.119 356.852 444.681 356.852 420.702 356.852 396.724 376.291 377.285 400.269 377.285 424.248 377.285 443.686 396.724 443.686 420.702 443.668 444.677 424.244 464.113 400.269 464.146Z" fill="#BFBFBF" transform="matrix(1 0 0 -1 665 508)"/><path d="M389.41 161.336C411.056 161.342 428.609 143.799 428.615 122.153 428.621 100.506 411.078 82.9535 389.431 82.9475 367.785 82.9416 350.232 100.485 350.226 122.131 350.226 122.135 350.226 122.138 350.226 122.142 350.223 143.785 367.766 161.333 389.41 161.336ZM389.41 93.8017C405.061 93.7957 417.755 106.479 417.761 122.131 417.767 137.783 405.083 150.476 389.431 150.482 373.78 150.488 361.086 137.805 361.08 122.153 361.08 122.149 361.08 122.146 361.08 122.142 361.098 106.502 373.769 93.8256 389.41 93.8017Z" fill="#BFBFBF" transform="matrix(1 0 0 -1 665 508)"/><path d="M112.617 361.004C88.6389 361.004 69.2007 380.442 69.2007 404.421 69.2007 428.399 88.6389 447.837 112.617 447.837 136.596 447.837 156.034 428.399 156.034 404.421 156.034 380.442 136.596 361.004 112.617 361.004ZM112.617 436.983C94.6337 436.983 80.0549 422.405 80.0549 404.421 80.0549 386.437 94.6337 371.858 112.617 371.858 130.601 371.858 145.18 386.437 145.18 404.421 145.168 422.403 130.6 436.981 112.617 437.005Z" fill="#BFBFBF" transform="matrix(1 0 0 -1 665 508)"/><path d="M185.888 112.482C204.538 112.485 219.658 97.3689 219.661 78.7198 219.664 60.0708 204.548 44.9501 185.899 44.9471 167.257 44.9441 152.139 60.0501 152.127 78.6927 152.111 97.3391 167.215 112.467 185.861 112.482 185.871 112.482 185.879 112.482 185.888 112.482ZM185.888 55.8013C198.543 55.798 208.804 66.0547 208.807 78.709 208.81 91.3633 198.554 101.624 185.899 101.628 173.245 101.631 162.984 91.3742 162.981 78.7198 162.981 78.7106 162.981 78.7019 162.981 78.6927 163.005 66.0536 173.249 55.8165 185.888 55.8013Z" fill="#BFBFBF" transform="matrix(1 0 0 -1 665 508)"/><path d="M93.6226 122.142C102.615 122.142 109.904 114.853 109.904 105.861 109.904 96.8686 102.615 89.5794 93.6226 89.5794 84.6305 89.5794 77.3414 96.8686 77.3414 105.861 77.3414 114.853 84.6305 122.142 93.6226 122.142ZM93.6226 100.434C96.62 100.434 99.0497 102.863 99.0497 105.861 99.0497 108.858 96.62 111.288 93.6226 111.288 90.6252 111.288 88.1955 108.858 88.1955 105.861 88.1923 102.863 90.6198 100.431 93.6172 100.428 93.6188 100.428 93.621 100.428 93.6226 100.428Z" fill="#BFBFBF" transform="matrix(1 0 0 -1 665 508)"/><path d="M402.983 317.571C402.983 326.563 410.272 333.852 419.264 333.852 428.256 333.852 435.545 326.563 435.545 317.571 435.545 308.579 428.256 301.29 419.264 301.29 410.272 301.29 402.983 308.579 402.983 317.571ZM424.691 317.571C424.691 320.569 422.261 322.998 419.264 322.998 416.267 322.998 413.837 320.569 413.837 317.571 413.837 314.574 416.267 312.144 419.264 312.144 422.261 312.144 424.691 314.574 424.691 317.571Z" fill="#BFBFBF" transform="matrix(1 0 0 -1 665 508)"/><path d="M202.17 420.718C193.178 420.718 185.888 428.008 185.888 437 185.888 445.992 193.178 453.281 202.17 453.281 211.162 453.281 218.451 445.992 218.451 437 218.451 428.008 211.162 420.718 202.17 420.718ZM202.17 442.427C199.172 442.427 196.743 439.997 196.743 437 196.743 434.002 199.172 431.573 202.17 431.573 205.167 431.573 207.597 434.002 207.597 437 207.6 439.997 205.173 442.429 202.175 442.432 202.174 442.432 202.171 442.432 202.17 442.432Z" fill="#BFBFBF" transform="matrix(1 0 0 -1 665 508)"/><path d="M135.677 184.521C132.68 184.521 130.25 186.951 130.25 189.948 130.25 192.945 132.68 195.375 135.677 195.375 141.672 195.375 146.531 200.234 146.531 206.229 146.531 209.227 148.961 211.656 151.958 211.656 154.956 211.656 157.385 209.227 157.385 206.229 157.385 194.24 147.666 184.521 135.677 184.521Z" fill="#BFBFBF" transform="matrix(1 0 0 -1 665 508)"/><path d="M336.479 238.792C339.477 238.792 341.906 236.362 341.906 233.365 341.876 206.401 320.026 184.551 293.063 184.521 290.065 184.521 287.635 186.951 287.635 189.948 287.635 192.945 290.065 195.375 293.063 195.375 314.034 195.399 331.028 212.393 331.052 233.365 331.052 236.362 333.482 238.792 336.479 238.792Z" fill="#BFBFBF" transform="matrix(1 0 0 -1 665 508)"/><path d="M247.394 273.606C244.396 273.606 241.967 276.036 241.967 279.034 241.967 282.031 244.396 284.461 247.394 284.461 262.373 284.478 274.511 296.617 274.529 311.596 274.529 314.593 276.959 317.023 279.956 317.023 282.953 317.023 285.383 314.593 285.383 311.596 285.359 290.625 268.365 273.63 247.394 273.606Z" fill="#BFBFBF" transform="matrix(1 0 0 -1 665 508)"/><path d="M401.604 390.75C398.607 390.75 396.177 393.18 396.177 396.177 396.177 399.174 398.607 401.604 401.604 401.604 410.596 401.604 417.885 408.893 417.885 417.885 417.885 420.883 420.315 423.313 423.313 423.313 426.31 423.313 428.74 420.883 428.74 417.885 428.722 402.906 416.583 390.768 401.604 390.75Z" fill="#BFBFBF" transform="matrix(1 0 0 -1 665 508)"/></g></g></g><g clip-path="url(#clip4)"><g clip-path="url(#clip5)"><g clip-path="url(#clip6)"><path d="M709.042 322.792C709.042 277.832 672.595 241.385 627.635 241.385 582.676 241.385 546.229 277.832 546.229 322.792 546.229 324.821 546.387 326.808 546.533 328.799 549.967 327.068 553.519 325.584 557.165 324.36 557.165 323.817 557.083 323.324 557.083 322.792 557.064 283.827 588.635 252.224 627.6 252.204 666.565 252.185 698.168 283.757 698.188 322.721 698.2 348.163 684.514 371.641 662.369 384.167 663.183 387.931 663.727 391.749 663.997 395.591 691.598 381.825 709.041 353.635 709.042 322.792Z" fill="#BFBFBF"/><path d="M582.873 331.003C543.908 331.003 512.321 362.59 512.321 401.555 512.321 440.52 543.908 472.107 582.873 472.107 621.838 472.107 653.425 440.52 653.425 401.555 653.425 362.59 621.838 331.003 582.873 331.003ZM582.873 461.291C549.903 461.291 523.175 434.563 523.175 401.593 523.175 368.623 549.903 341.895 582.873 341.895 615.843 341.895 642.571 368.623 642.571 401.593 642.529 434.546 615.826 461.249 582.873 461.291Z" fill="#BFBFBF"/><path d="M474.326 244.142C447.35 244.142 425.482 266.01 425.482 292.986 425.482 319.962 447.35 341.83 474.326 341.83 501.302 341.83 523.169 319.962 523.169 292.986 523.169 266.01 501.302 244.142 474.326 244.142ZM474.326 331.003C453.345 331.003 436.336 313.994 436.336 293.013 436.336 272.032 453.345 255.024 474.326 255.024 495.307 255.024 512.315 272.032 512.315 293.013 512.288 313.983 495.295 330.976 474.326 331.003Z" fill="#BFBFBF"/><path d="M740.269 450.431C710.296 450.431 685.998 474.729 685.998 504.702 685.998 534.675 710.296 558.973 740.269 558.973 770.242 558.973 794.54 534.675 794.54 504.702 794.54 474.729 770.242 450.431 740.269 450.431ZM740.269 548.119C716.291 548.119 696.852 528.681 696.852 504.702 696.852 480.724 716.291 461.285 740.269 461.285 764.248 461.285 783.686 480.724 783.686 504.702 783.668 528.677 764.244 548.113 740.269 548.146Z" fill="#BFBFBF"/><path d="M729.41 245.336C751.056 245.342 768.609 227.799 768.615 206.153 768.621 184.506 751.078 166.954 729.431 166.948 707.785 166.942 690.232 184.485 690.226 206.131 690.226 206.135 690.226 206.138 690.226 206.142 690.223 227.785 707.766 245.333 729.41 245.336ZM729.41 177.802C745.061 177.796 757.755 190.479 757.761 206.131 757.767 221.783 745.083 234.476 729.431 234.482 713.78 234.488 701.086 221.805 701.08 206.153 701.08 206.149 701.08 206.146 701.08 206.142 701.098 190.502 713.769 177.826 729.41 177.802Z" fill="#BFBFBF"/><path d="M452.617 445.004C428.639 445.004 409.201 464.442 409.201 488.421 409.201 512.399 428.639 531.838 452.617 531.838 476.596 531.838 496.034 512.399 496.034 488.421 496.034 464.442 476.596 445.004 452.617 445.004ZM452.617 520.983C434.634 520.983 420.055 506.405 420.055 488.421 420.055 470.437 434.634 455.858 452.617 455.858 470.601 455.858 485.18 470.437 485.18 488.421 485.168 506.403 470.599 520.981 452.617 521.005Z" fill="#BFBFBF"/><path d="M525.888 196.482C544.538 196.485 559.658 181.369 559.661 162.72 559.664 144.071 544.548 128.95 525.899 128.947 507.257 128.944 492.139 144.05 492.127 162.693 492.111 181.339 507.215 196.467 525.861 196.482 525.871 196.482 525.879 196.482 525.888 196.482ZM525.888 139.801C538.543 139.798 548.804 150.055 548.807 162.709 548.81 175.363 538.554 185.624 525.899 185.628 513.245 185.631 502.984 175.374 502.981 162.72 502.981 162.711 502.981 162.702 502.981 162.693 503.005 150.054 513.249 139.816 525.888 139.801Z" fill="#BFBFBF"/><path d="M433.623 206.142C442.615 206.142 449.904 198.853 449.904 189.861 449.904 180.869 442.615 173.579 433.623 173.579 424.63 173.579 417.341 180.869 417.341 189.861 417.341 198.853 424.63 206.142 433.623 206.142ZM433.623 184.434C436.62 184.434 439.05 186.863 439.05 189.861 439.05 192.858 436.62 195.288 433.623 195.288 430.625 195.288 428.196 192.858 428.196 189.861 428.192 186.863 430.62 184.431 433.617 184.428 433.619 184.428 433.621 184.428 433.623 184.428Z" fill="#BFBFBF"/><path d="M742.983 401.571C742.983 410.563 750.272 417.852 759.264 417.852 768.256 417.852 775.545 410.563 775.545 401.571 775.545 392.579 768.256 385.29 759.264 385.29 750.272 385.29 742.983 392.579 742.983 401.571ZM764.691 401.571C764.691 404.569 762.261 406.998 759.264 406.998 756.266 406.998 753.837 404.569 753.837 401.571 753.837 398.574 756.266 396.144 759.264 396.144 762.261 396.144 764.691 398.574 764.691 401.571Z" fill="#BFBFBF"/><path d="M542.17 504.718C533.178 504.718 525.888 512.008 525.888 521 525.888 529.992 533.178 537.281 542.17 537.281 551.162 537.281 558.451 529.992 558.451 521 558.451 512.008 551.162 504.718 542.17 504.718ZM542.17 526.427C539.172 526.427 536.743 523.997 536.743 521 536.743 518.002 539.172 515.573 542.17 515.573 545.167 515.573 547.597 518.002 547.597 521 547.6 523.997 545.173 526.429 542.175 526.432 542.174 526.432 542.171 526.432 542.17 526.432Z" fill="#BFBFBF"/><path d="M475.677 268.521C472.68 268.521 470.25 270.951 470.25 273.948 470.25 276.945 472.68 279.375 475.677 279.375 481.672 279.375 486.531 284.234 486.531 290.229 486.531 293.227 488.961 295.656 491.958 295.656 494.956 295.656 497.385 293.227 497.385 290.229 497.385 278.24 487.666 268.521 475.677 268.521Z" fill="#BFBFBF"/><path d="M676.479 322.792C679.477 322.792 681.906 320.362 681.906 317.365 681.876 290.401 660.026 268.551 633.063 268.521 630.065 268.521 627.635 270.951 627.635 273.948 627.635 276.945 630.065 279.375 633.063 279.375 654.034 279.399 671.028 296.393 671.052 317.365 671.052 320.362 673.482 322.792 676.479 322.792Z" fill="#BFBFBF"/><path d="M587.394 357.606C584.396 357.606 581.966 360.036 581.966 363.034 581.966 366.031 584.396 368.461 587.394 368.461 602.373 368.478 614.511 380.617 614.529 395.596 614.529 398.593 616.959 401.023 619.956 401.023 622.953 401.023 625.383 398.593 625.383 395.596 625.359 374.625 608.365 357.63 587.394 357.606Z" fill="#BFBFBF"/><path d="M741.604 474.75C738.607 474.75 736.177 477.18 736.177 480.177 736.177 483.174 738.607 485.604 741.604 485.604 750.596 485.604 757.885 492.893 757.885 501.885 757.885 504.883 760.315 507.313 763.313 507.313 766.31 507.313 768.74 504.883 768.74 501.885 768.722 486.906 756.583 474.768 741.604 474.75Z" fill="#BFBFBF"/></g></g></g><g clip-path="url(#clip7)"><g clip-path="url(#clip8)"><g clip-path="url(#clip9)"><path d="M363.042 481.792C363.042 436.832 326.595 400.385 281.635 400.385 236.676 400.385 200.229 436.832 200.229 481.792 200.229 483.821 200.387 485.808 200.533 487.799 203.967 486.068 207.519 484.584 211.165 483.36 211.165 482.817 211.083 482.324 211.083 481.792 211.064 442.827 242.635 411.224 281.6 411.204 320.565 411.185 352.168 442.757 352.188 481.721 352.2 507.163 338.514 530.641 316.369 543.167 317.183 546.931 317.727 550.749 317.997 554.591 345.598 540.825 363.041 512.635 363.042 481.792Z" fill="#BFBFBF"/><path d="M236.873 490.003C197.908 490.003 166.321 521.59 166.321 560.555 166.321 599.52 197.908 631.107 236.873 631.107 275.838 631.107 307.425 599.52 307.425 560.555 307.425 521.59 275.838 490.003 236.873 490.003ZM236.873 620.291C203.903 620.291 177.175 593.563 177.175 560.593 177.175 527.623 203.903 500.895 236.873 500.895 269.843 500.895 296.571 527.623 296.571 560.593 296.529 593.546 269.826 620.249 236.873 620.291Z" fill="#BFBFBF"/><path d="M128.326 403.142C101.35 403.142 79.482 425.01 79.482 451.986 79.482 478.962 101.35 500.83 128.326 500.83 155.302 500.83 177.169 478.962 177.169 451.986 177.169 425.01 155.302 403.142 128.326 403.142ZM128.326 490.003C107.345 490.003 90.3362 472.994 90.3362 452.013 90.3362 431.032 107.345 414.024 128.326 414.024 149.307 414.024 166.315 431.032 166.315 452.013 166.288 472.983 149.295 489.976 128.326 490.003Z" fill="#BFBFBF"/><path d="M394.269 609.431C364.296 609.431 339.998 633.729 339.998 663.702 339.998 693.675 364.296 717.973 394.269 717.973 424.242 717.973 448.54 693.675 448.54 663.702 448.54 633.729 424.242 609.431 394.269 609.431ZM394.269 707.119C370.291 707.119 350.852 687.681 350.852 663.702 350.852 639.724 370.291 620.285 394.269 620.285 418.248 620.285 437.686 639.724 437.686 663.702 437.668 687.677 418.244 707.113 394.269 707.146Z" fill="#BFBFBF"/><path d="M383.41 404.336C405.056 404.342 422.609 386.799 422.615 365.153 422.621 343.506 405.078 325.954 383.431 325.948 361.785 325.942 344.232 343.485 344.226 365.131 344.226 365.135 344.226 365.138 344.226 365.142 344.223 386.785 361.766 404.333 383.41 404.336ZM383.41 336.802C399.061 336.796 411.755 349.479 411.761 365.131 411.767 380.783 399.083 393.476 383.431 393.482 367.78 393.488 355.086 380.805 355.08 365.153 355.08 365.149 355.08 365.146 355.08 365.142 355.098 349.502 367.769 336.826 383.41 336.802Z" fill="#BFBFBF"/><path d="M106.617 604.004C82.6389 604.004 63.2007 623.442 63.2007 647.421 63.2007 671.399 82.6389 690.838 106.617 690.838 130.596 690.838 150.034 671.399 150.034 647.421 150.034 623.442 130.596 604.004 106.617 604.004ZM106.617 679.983C88.6337 679.983 74.0549 665.405 74.0549 647.421 74.0549 629.437 88.6337 614.858 106.617 614.858 124.601 614.858 139.18 629.437 139.18 647.421 139.168 665.403 124.6 679.981 106.617 680.005Z" fill="#BFBFBF"/><path d="M179.888 355.482C198.538 355.485 213.658 340.369 213.661 321.72 213.664 303.071 198.548 287.95 179.899 287.947 161.257 287.944 146.139 303.05 146.127 321.693 146.111 340.339 161.215 355.467 179.861 355.482 179.871 355.482 179.879 355.482 179.888 355.482ZM179.888 298.801C192.543 298.798 202.804 309.055 202.807 321.709 202.81 334.363 192.554 344.624 179.899 344.628 167.245 344.631 156.984 334.374 156.981 321.72 156.981 321.711 156.981 321.702 156.981 321.693 157.005 309.054 167.249 298.816 179.888 298.801Z" fill="#BFBFBF"/><path d="M87.6226 365.142C96.6148 365.142 103.904 357.853 103.904 348.861 103.904 339.869 96.6148 332.579 87.6226 332.579 78.6305 332.579 71.3414 339.869 71.3414 348.861 71.3414 357.853 78.6305 365.142 87.6226 365.142ZM87.6226 343.434C90.62 343.434 93.0497 345.863 93.0497 348.861 93.0497 351.858 90.62 354.288 87.6226 354.288 84.6252 354.288 82.1955 351.858 82.1955 348.861 82.1923 345.863 84.6198 343.431 87.6172 343.428 87.6188 343.428 87.621 343.428 87.6226 343.428Z" fill="#BFBFBF"/><path d="M396.983 560.571C396.983 569.563 404.272 576.852 413.264 576.852 422.256 576.852 429.545 569.563 429.545 560.571 429.545 551.579 422.256 544.29 413.264 544.29 404.272 544.29 396.983 551.579 396.983 560.571ZM418.691 560.571C418.691 563.569 416.261 565.998 413.264 565.998 410.267 565.998 407.837 563.569 407.837 560.571 407.837 557.574 410.267 555.144 413.264 555.144 416.261 555.144 418.691 557.574 418.691 560.571Z" fill="#BFBFBF"/><path d="M196.17 663.718C187.178 663.718 179.888 671.008 179.888 680 179.888 688.992 187.178 696.281 196.17 696.281 205.162 696.281 212.451 688.992 212.451 680 212.451 671.008 205.162 663.718 196.17 663.718ZM196.17 685.427C193.172 685.427 190.743 682.997 190.743 680 190.743 677.002 193.172 674.573 196.17 674.573 199.167 674.573 201.597 677.002 201.597 680 201.6 682.997 199.173 685.429 196.175 685.432 196.174 685.432 196.171 685.432 196.17 685.432Z" fill="#BFBFBF"/><path d="M129.677 427.521C126.68 427.521 124.25 429.951 124.25 432.948 124.25 435.945 126.68 438.375 129.677 438.375 135.672 438.375 140.531 443.234 140.531 449.229 140.531 452.227 142.961 454.656 145.958 454.656 148.956 454.656 151.385 452.227 151.385 449.229 151.385 437.24 141.666 427.521 129.677 427.521Z" fill="#BFBFBF"/><path d="M330.479 481.792C333.477 481.792 335.906 479.362 335.906 476.365 335.876 449.401 314.026 427.551 287.063 427.521 284.065 427.521 281.635 429.951 281.635 432.948 281.635 435.945 284.065 438.375 287.063 438.375 308.034 438.399 325.028 455.393 325.052 476.365 325.052 479.362 327.482 481.792 330.479 481.792Z" fill="#BFBFBF"/><path d="M241.394 516.606C238.396 516.606 235.967 519.036 235.967 522.034 235.967 525.031 238.396 527.461 241.394 527.461 256.373 527.479 268.511 539.617 268.529 554.596 268.529 557.593 270.959 560.023 273.956 560.023 276.953 560.023 279.383 557.593 279.383 554.596 279.359 533.625 262.365 516.63 241.394 516.606Z" fill="#BFBFBF"/><path d="M395.604 633.75C392.607 633.75 390.177 636.18 390.177 639.177 390.177 642.174 392.607 644.604 395.604 644.604 404.596 644.604 411.885 651.893 411.885 660.885 411.885 663.883 414.315 666.313 417.313 666.313 420.31 666.313 422.74 663.883 422.74 660.885 422.722 645.906 410.583 633.768 395.604 633.75Z" fill="#BFBFBF"/></g></g></g><g clip-path="url(#clip10)"><g clip-path="url(#clip11)"><g clip-path="url(#clip12)"><path d="M685.988 263.097C631.301 258.157 582.963 298.485 578.022 353.172 577.826 355.351 577.635 357.463 577.426 359.773 628.555 340.362 685.74 366.074 705.152 417.203 709.757 429.332 711.933 442.247 711.558 455.215 762.99 435.981 789.092 378.697 769.859 327.265 756.511 291.569 723.933 266.645 685.988 263.097ZM743.652 361.48C740.007 361.151 737.318 357.928 737.647 354.282 739.953 328.762 721.133 306.204 695.613 303.898 691.967 303.569 689.278 300.346 689.608 296.701 689.937 293.055 693.159 290.366 696.805 290.696 729.618 293.66 753.814 322.662 750.85 355.475 750.521 359.121 747.298 361.809 743.652 361.48Z" fill="#FFC000"/><path d="M620.037 366.951C572.641 362.669 530.748 397.62 526.466 445.015 522.184 492.411 557.135 534.304 604.531 538.586 651.927 542.867 693.819 507.917 698.101 460.521 702.383 413.125 667.432 371.232 620.037 366.951ZM665.691 450.938C662.045 450.608 659.357 447.386 659.686 443.74 661.333 425.511 647.89 409.398 629.661 407.751 626.015 407.422 623.327 404.2 623.656 400.554 623.985 396.908 627.208 394.219 630.854 394.549 656.375 396.854 675.194 419.412 672.889 444.933 672.559 448.579 669.337 451.267 665.691 450.938Z" fill="#FFC000"/><path d="M497.552 249.402C464.739 246.437 435.736 270.634 432.772 303.446 429.808 336.259 454.004 365.261 486.817 368.226 519.63 371.19 548.632 346.994 551.596 314.181 554.561 281.368 530.364 252.366 497.552 249.402ZM522.188 308.197C518.542 307.867 515.854 304.645 516.183 300.999 516.842 293.707 511.465 287.262 504.174 286.603 500.528 286.274 497.839 283.052 498.169 279.406 498.498 275.76 501.72 273.071 505.366 273.401 519.949 274.718 530.704 287.609 529.386 302.192 529.057 305.838 525.834 308.526 522.188 308.197Z" fill="#FFC000"/><path d="M798.355 529.475C761.897 526.181 729.672 553.066 726.378 589.525 723.085 625.983 749.969 658.208 786.428 661.502 822.887 664.796 855.112 637.911 858.405 601.452 861.699 564.994 834.814 532.769 798.355 529.475ZM825.595 596.292C821.348 595.872 818.221 592.124 818.569 587.871 819.337 579.376 813.072 571.867 804.578 571.1 800.312 570.715 797.167 566.944 797.552 562.679 797.937 558.413 801.708 555.267 805.973 555.653 822.981 557.226 835.517 572.252 834.017 589.266 833.597 593.514 829.849 596.64 825.595 596.292Z" fill="#FFC000"/><path d="M859.651 235.527C857.273 261.85 834.007 281.261 807.684 278.883 781.361 276.505 761.95 253.239 764.328 226.916 766.706 200.593 789.973 181.182 816.295 183.56 842.618 185.938 862.029 209.205 859.651 235.527Z" fill="#FFC000"/><path d="M497.12 548.848C494.485 578.014 468.705 599.522 439.538 596.888 410.372 594.253 388.864 568.472 391.499 539.306 394.134 510.139 419.914 488.631 449.08 491.266 478.247 493.901 499.755 519.681 497.12 548.848Z" fill="#FFC000"/><path d="M610.27 159.756C608.222 182.433 588.178 199.156 565.5 197.107 542.823 195.059 526.101 175.014 528.15 152.337 530.198 129.66 550.242 112.938 572.919 114.986 595.596 117.035 612.319 137.079 610.27 159.756Z" fill="#FFC000"/><path d="M473.809 180.704C472.821 191.642 463.154 199.707 452.216 198.719 441.279 197.731 433.213 188.064 434.201 177.126 435.189 166.189 444.857 158.123 455.794 159.111 466.732 160.099 474.797 169.767 473.809 180.704Z" fill="#FFC000"/><path d="M846.632 473.939C845.643 484.877 835.976 492.942 825.038 491.954 814.101 490.966 806.035 481.299 807.023 470.361 808.012 459.424 817.679 451.358 828.617 452.346 839.554 453.334 847.62 463.002 846.632 473.939Z" fill="#FFC000"/><path d="M569.457 595.314C568.469 606.252 558.802 614.317 547.864 613.329 536.927 612.341 528.861 602.673 529.849 591.736 530.837 580.798 540.505 572.733 551.443 573.721 562.38 574.709 570.446 584.377 569.457 595.314Z" fill="#FFC000"/></g></g></g></g></svg>